<mxfile host="65bd71144e">
    <diagram id="s3XKS49f7g5tn125unqJ" name="Page-1">
        <mxGraphModel dx="716" dy="375" grid="1" gridSize="10" guides="1" tooltips="1" connect="1" arrows="1" fold="1" page="1" pageScale="1" pageWidth="1200" pageHeight="600" math="0" shadow="0">
            <root>
                <mxCell id="0"/>
                <mxCell id="1" parent="0"/>
                <mxCell id="67" value="" style="fillColor=none;strokeColor=#364AFF;rounded=0;connectable=0;arcSize=8;dashed=1;strokeWidth=2;" parent="1" vertex="1">
                    <mxGeometry x="300" y="90" width="440" height="460" as="geometry"/>
                </mxCell>
                <mxCell id="44" value="" style="rounded=0;fillColor=#f8cecc;strokeColor=none;opacity=30;connectable=0;" parent="1" vertex="1">
                    <mxGeometry x="240" y="400" width="640" height="120" as="geometry"/>
                </mxCell>
                <mxCell id="43" value="" style="rounded=0;fillColor=#fff2cc;strokeColor=none;opacity=30;connectable=0;" parent="1" vertex="1">
                    <mxGeometry x="240" y="280" width="640" height="120" as="geometry"/>
                </mxCell>
                <mxCell id="42" value="" style="rounded=0;fillColor=#d5e8d4;strokeColor=none;opacity=30;verticalAlign=middle;align=center;spacing=2;connectable=0;" parent="1" vertex="1">
                    <mxGeometry x="240" y="160" width="640" height="120" as="geometry"/>
                </mxCell>
                <mxCell id="12" value="" style="endArrow=none;dashed=1;entryX=0.5;entryY=1;entryDx=0;entryDy=0;" parent="1" target="5" edge="1">
                    <mxGeometry width="50" height="50" relative="1" as="geometry">
                        <mxPoint x="680" y="530" as="sourcePoint"/>
                        <mxPoint x="530" y="159.99999999999994" as="targetPoint"/>
                    </mxGeometry>
                </mxCell>
                <mxCell id="4" value="" style="endArrow=none;dashed=1;entryX=0.5;entryY=1;entryDx=0;entryDy=0;" parent="1" target="3" edge="1">
                    <mxGeometry width="50" height="50" relative="1" as="geometry">
                        <mxPoint x="520" y="530" as="sourcePoint"/>
                        <mxPoint x="750" y="200" as="targetPoint"/>
                    </mxGeometry>
                </mxCell>
                <mxCell id="2" value="" style="rounded=0;" parent="1" vertex="1">
                    <mxGeometry x="675" y="190" width="10" height="60" as="geometry"/>
                </mxCell>
                <mxCell id="3" value="Handler" style="rounded=0;fontSize=9;" parent="1" vertex="1">
                    <mxGeometry x="480" y="110" width="80" height="40" as="geometry"/>
                </mxCell>
                <mxCell id="5" value="Docker Container&#10;Incoice Collector" style="rounded=0;fontSize=9;" parent="1" vertex="1">
                    <mxGeometry x="640" y="110" width="80" height="40" as="geometry"/>
                </mxCell>
                <mxCell id="6" value="Incoice Collector&#10;Server" style="rounded=0;fontSize=9;" parent="1" vertex="1">
                    <mxGeometry x="800" y="110" width="80" height="40" as="geometry"/>
                </mxCell>
                <mxCell id="7" value="" style="endArrow=open;fontSize=9;endFill=0;" parent="1" edge="1">
                    <mxGeometry width="50" height="50" relative="1" as="geometry">
                        <mxPoint x="370" y="190" as="sourcePoint"/>
                        <mxPoint x="670" y="190" as="targetPoint"/>
                    </mxGeometry>
                </mxCell>
                <mxCell id="8" value="Collect" style="text;strokeColor=none;fillColor=none;align=center;verticalAlign=middle;rounded=0;fontSize=9;" parent="1" vertex="1">
                    <mxGeometry x="370" y="180" width="150" height="10" as="geometry"/>
                </mxCell>
                <mxCell id="13" value="" style="endArrow=none;dashed=1;entryX=0.5;entryY=1;entryDx=0;entryDy=0;" parent="1" target="6" edge="1">
                    <mxGeometry width="50" height="50" relative="1" as="geometry">
                        <mxPoint x="840" y="530" as="sourcePoint"/>
                        <mxPoint x="690" y="159.99999999999994" as="targetPoint"/>
                    </mxGeometry>
                </mxCell>
                <mxCell id="15" value="" style="rounded=0;" parent="1" vertex="1">
                    <mxGeometry x="835" y="250" width="10" height="10" as="geometry"/>
                </mxCell>
                <mxCell id="18" value="" style="endArrow=open;fontSize=9;endFill=0;" parent="1" edge="1">
                    <mxGeometry width="50" height="50" relative="1" as="geometry">
                        <mxPoint x="670" y="250" as="sourcePoint"/>
                        <mxPoint x="530" y="250" as="targetPoint"/>
                    </mxGeometry>
                </mxCell>
                <mxCell id="19" value="Return invoices" style="text;strokeColor=none;fillColor=none;align=center;verticalAlign=middle;rounded=0;fontSize=9;" parent="1" vertex="1">
                    <mxGeometry x="530" y="240" width="140" height="10" as="geometry"/>
                </mxCell>
                <mxCell id="20" value="" style="rounded=0;" parent="1" vertex="1">
                    <mxGeometry x="515" y="250" width="10" height="10" as="geometry"/>
                </mxCell>
                <mxCell id="21" value="" style="endArrow=open;fontSize=9;endFill=0;" parent="1" edge="1">
                    <mxGeometry width="50" height="50" relative="1" as="geometry">
                        <mxPoint x="690" y="249.52" as="sourcePoint"/>
                        <mxPoint x="830" y="249.52" as="targetPoint"/>
                    </mxGeometry>
                </mxCell>
                <mxCell id="22" value="Log success" style="text;strokeColor=none;fillColor=none;align=center;verticalAlign=middle;rounded=0;fontSize=9;" parent="1" vertex="1">
                    <mxGeometry x="690" y="240" width="140" height="10" as="geometry"/>
                </mxCell>
                <mxCell id="24" value="" style="rounded=0;" parent="1" vertex="1">
                    <mxGeometry x="675" y="310" width="10" height="60" as="geometry"/>
                </mxCell>
                <mxCell id="25" value="" style="endArrow=open;fontSize=9;endFill=0;" parent="1" edge="1">
                    <mxGeometry width="50" height="50" relative="1" as="geometry">
                        <mxPoint x="370" y="310" as="sourcePoint"/>
                        <mxPoint x="670" y="310" as="targetPoint"/>
                    </mxGeometry>
                </mxCell>
                <mxCell id="26" value="Collect" style="text;strokeColor=none;fillColor=none;align=center;verticalAlign=middle;rounded=0;fontSize=9;" parent="1" vertex="1">
                    <mxGeometry x="370" y="300" width="150" height="10" as="geometry"/>
                </mxCell>
                <mxCell id="28" value="" style="endArrow=open;fontSize=9;endFill=0;" parent="1" edge="1">
                    <mxGeometry width="50" height="50" relative="1" as="geometry">
                        <mxPoint x="670" y="370" as="sourcePoint"/>
                        <mxPoint x="530" y="370" as="targetPoint"/>
                    </mxGeometry>
                </mxCell>
                <mxCell id="29" value="Return error" style="text;strokeColor=none;fillColor=none;align=center;verticalAlign=middle;rounded=0;fontSize=9;" parent="1" vertex="1">
                    <mxGeometry x="530" y="360" width="140" height="10" as="geometry"/>
                </mxCell>
                <mxCell id="30" value="" style="rounded=0;" parent="1" vertex="1">
                    <mxGeometry x="515" y="370" width="10" height="10" as="geometry"/>
                </mxCell>
                <mxCell id="33" value="" style="rounded=0;" parent="1" vertex="1">
                    <mxGeometry x="675" y="430" width="10" height="60" as="geometry"/>
                </mxCell>
                <mxCell id="34" value="" style="endArrow=open;fontSize=9;endFill=0;" parent="1" edge="1">
                    <mxGeometry width="50" height="50" relative="1" as="geometry">
                        <mxPoint x="370" y="430" as="sourcePoint"/>
                        <mxPoint x="670" y="430" as="targetPoint"/>
                    </mxGeometry>
                </mxCell>
                <mxCell id="35" value="Collect" style="text;strokeColor=none;fillColor=none;align=center;verticalAlign=middle;rounded=0;fontSize=9;" parent="1" vertex="1">
                    <mxGeometry x="370" y="420" width="150" height="10" as="geometry"/>
                </mxCell>
                <mxCell id="36" value="" style="rounded=0;" parent="1" vertex="1">
                    <mxGeometry x="835" y="490" width="10" height="10" as="geometry"/>
                </mxCell>
                <mxCell id="37" value="" style="endArrow=open;fontSize=9;endFill=0;" parent="1" edge="1">
                    <mxGeometry width="50" height="50" relative="1" as="geometry">
                        <mxPoint x="670" y="490" as="sourcePoint"/>
                        <mxPoint x="530" y="490" as="targetPoint"/>
                    </mxGeometry>
                </mxCell>
                <mxCell id="38" value="Return error" style="text;strokeColor=none;fillColor=none;align=center;verticalAlign=middle;rounded=0;fontSize=9;" parent="1" vertex="1">
                    <mxGeometry x="530" y="480" width="140" height="10" as="geometry"/>
                </mxCell>
                <mxCell id="39" value="" style="rounded=0;" parent="1" vertex="1">
                    <mxGeometry x="515" y="490" width="10" height="10" as="geometry"/>
                </mxCell>
                <mxCell id="40" value="" style="endArrow=open;fontSize=9;endFill=0;" parent="1" edge="1">
                    <mxGeometry width="50" height="50" relative="1" as="geometry">
                        <mxPoint x="690" y="489.52" as="sourcePoint"/>
                        <mxPoint x="830" y="489.52" as="targetPoint"/>
                    </mxGeometry>
                </mxCell>
                <mxCell id="41" value="Log error" style="text;strokeColor=none;fillColor=none;align=center;verticalAlign=middle;rounded=0;fontSize=9;" parent="1" vertex="1">
                    <mxGeometry x="690" y="480" width="140" height="10" as="geometry"/>
                </mxCell>
                <mxCell id="45" value="Success" style="text;strokeColor=none;fillColor=none;align=left;verticalAlign=top;rounded=0;opacity=30;horizontal=1;fontSize=10;fontColor=#82B366;" parent="1" vertex="1">
                    <mxGeometry x="240" y="160" width="80" height="30" as="geometry"/>
                </mxCell>
                <mxCell id="46" value="Login error&#10;" style="text;strokeColor=none;fillColor=none;align=left;verticalAlign=top;rounded=0;opacity=30;horizontal=1;fontSize=10;fontColor=#D6B656;" parent="1" vertex="1">
                    <mxGeometry x="240" y="280" width="80" height="30" as="geometry"/>
                </mxCell>
                <mxCell id="47" value="Other error&#10;" style="text;strokeColor=none;fillColor=none;align=left;verticalAlign=top;rounded=0;opacity=30;horizontal=1;fontSize=10;fontColor=#B85450;" parent="1" vertex="1">
                    <mxGeometry x="240" y="400" width="100" height="30" as="geometry"/>
                </mxCell>
                <mxCell id="68" value="User Infrastructure" style="text;strokeColor=none;align=center;fillColor=none;verticalAlign=middle;rounded=0;fontColor=#364AFF;" parent="1" vertex="1">
                    <mxGeometry x="300" y="70" width="440" height="20" as="geometry"/>
                </mxCell>
                <mxCell id="69" value="" style="endArrow=none;dashed=1;entryX=0.5;entryY=1;entryDx=0;entryDy=0;" parent="1" target="70" edge="1">
                    <mxGeometry width="50" height="50" relative="1" as="geometry">
                        <mxPoint x="360" y="530" as="sourcePoint"/>
                        <mxPoint x="590" y="200" as="targetPoint"/>
                    </mxGeometry>
                </mxCell>
                <mxCell id="70" value="Requestor" style="rounded=0;fontSize=9;" parent="1" vertex="1">
                    <mxGeometry x="320" y="110" width="80" height="40" as="geometry"/>
                </mxCell>
            </root>
        </mxGraphModel>
    </diagram>
</mxfile>